<svg xmlns="http://www.w3.org/2000/svg" viewBox="0 0 831.95 831.95"><defs><style>.cls-1{fill:#fff;}</style></defs><title>资源 1</title><g id="图层_2" data-name="图层 2"><g id="Slovenia"><path class="cls-1" d="M416,0C186.24,0,0,186.24,0,416s186.24,416,416,416,416-186.24,416-416S645.71,0,416,0ZM679.44,613.51H152.5a61.24,61.24,0,0,1-61.06-61v-273a61.25,61.25,0,0,1,61.06-61.06H679.44a61.25,61.25,0,0,1,61.06,61.06v273A61.24,61.24,0,0,1,679.44,613.51Z"/><path class="cls-1" d="M412.21,421.82,117.46,233.24a7,7,0,0,1-2.11-9.6h0a7,7,0,0,1,9.6-2.12h0L416,407.7,707,221.52h0a6.93,6.93,0,0,1,9.6,2.11h0a6.94,6.94,0,0,1-2.11,9.6h0L419.7,421.82a6.93,6.93,0,0,1-3.74,1.09h0a6.94,6.94,0,0,1-3.74-1.09Z"/><path class="cls-1" d="M108.25,603.63a7,7,0,0,1-1.5-9.71h0L294.22,337.59a7,7,0,0,1,9.71-1.52h0a7,7,0,0,1,1.51,9.73h0L118,602.12a7,7,0,0,1-5.62,2.85h0a6.9,6.9,0,0,1-4.09-1.34Z"/><path class="cls-1" d="M714,602.12,526.5,345.8a6.94,6.94,0,0,1,1.5-9.72h0a6.94,6.94,0,0,1,9.71,1.5h0l187.5,256.32a7,7,0,0,1-1.5,9.71h0a6.92,6.92,0,0,1-4.1,1.34h0a6.93,6.93,0,0,1-5.61-2.85Z"/></g></g></svg>