<svg xmlns="http://www.w3.org/2000/svg" viewBox="0 0 110.7 110.66"><defs><style>.cls-1{fill:#fff;fill-rule:evenodd;}</style></defs><title>资源 1</title><g id="图层_2" data-name="图层 2"><g id="图层_1-2" data-name="图层 1"><path class="cls-1" d="M38.64,64.83a5.33,5.33,0,0,0-4.77,5c0,2.32,2.24,3.93,5,3.6s5-2.46,5-4.77-2.07-4.16-5.26-3.86Z"/><path class="cls-1" d="M45.69,62.92a2.19,2.19,0,0,0-.63,2.83,1.73,1.73,0,0,0,2.6.24,2.31,2.31,0,0,0,.78-2.83,1.8,1.8,0,0,0-2.74-.24Z"/><path class="cls-1" d="M55.36,0A55.33,55.33,0,1,0,110.7,55.34,55.37,55.37,0,0,0,55.36,0ZM85.61,69.22c-6.1,13-26.22,19.26-41.12,18.1-14.17-1.12-32.38-5.82-34.27-23,0,0-1-7.77,6.53-17.81,0,0,10.83-15.12,23.44-19.44s14.09,3,14.09,7.27c-.67,3.64-1.92,5.79,2.81,4.31,0,0,12.41-5.75,17.51-.65,4.12,4.12.68,9.79.68,9.79s-1.71,1.89,1.81,2.58,14.61,5.84,8.51,18.82ZM73.38,33.42a2.44,2.44,0,0,1,0-4.89s15.21-2.81,13.39,13.53a1.05,1.05,0,0,1,0,.26,2.44,2.44,0,0,1-4.85-.39S84.3,31,73.38,33.42Zm25.69,11.4c-.4,5.89-1.78,3.82-3.41,3.82-2,0-3.53-1-3.53-2.94a7.87,7.87,0,0,1,.7-3.12c.21-.72,1.86-5-1.09-11.63-5.41-9.08-16.3-9.14-17.59-8.62a18.93,18.93,0,0,1-3.21.8,3.53,3.53,0,0,1-1-6.93l.09,0,.34-.05c1.51-.29,6.92-2.36,12.18-1.13C92,17.2,104.9,27.16,99.09,44.82Z"/><path class="cls-1" d="M45.59,47.39c-14.8.68-26.76,8.61-26.76,18.49s12,17.3,26.76,16.61,26.79-9.94,26.79-19.82-12-16-26.79-15.28ZM55.67,72.25c-4.53,5.85-13.5,8.71-22.2,4a7.7,7.7,0,0,1-4-6.66S27.76,55.63,42.64,53.9s17.57,12.5,13,18.35Z"/></g></g></svg>